<?xml version="1.0" encoding="utf-8"?>
<svg xmlns="http://www.w3.org/2000/svg" xmlns:xlink="http://www.w3.org/1999/xlink" width="296px" height="80px" viewBox="0 0 296 80" version="1.1">
    
    <title>Page 1 Copy</title>
    <desc>Created with Sketch.</desc>
    <defs/>
    <g id="Page-1" stroke="none" stroke-width="1" fill="none" fill-rule="evenodd">
        <g id="Page-1-Copy" transform="translate(0.000000, -2.000000)" fill="#3D56A6">
            <g id="logo">
                <path d="M277.6114,5.5286 C277.2454,5.5286 276.9474,5.2326 276.9474,4.8646 C276.9474,4.4966 277.2454,4.2006 277.6114,4.2006 C277.9794,4.2006 278.2754,4.4966 278.2754,4.8646 C278.2754,5.2326 277.9794,5.5286 277.6114,5.5286 Z M277.6114,37.4954 C277.2454,37.4954 276.9474,37.1994 276.9474,36.8314 C276.9474,36.4634 277.2454,36.1674 277.6114,36.1674 C277.9794,36.1674 278.2754,36.4634 278.2754,36.8314 C278.2754,37.1994 277.9794,37.4954 277.6114,37.4954 Z M246.7462,38.9798 C245.6922,38.9798 244.8382,38.1258 244.8382,37.0718 C244.8382,36.0198 245.6922,35.1638 246.7462,35.1638 C247.8002,35.1638 248.6542,36.0198 248.6542,37.0718 C248.6542,38.1258 247.8002,38.9798 246.7462,38.9798 Z M268.8644,38.4348 C268.1124,38.4348 267.5004,37.8248 267.5004,37.0708 C267.5004,36.3188 268.1124,35.7108 268.8644,35.7108 C269.6164,35.7108 270.2264,36.3188 270.2264,37.0708 C270.2264,37.8248 269.6164,38.4348 268.8644,38.4348 Z M258.376,38.7082 C257.472,38.7082 256.74,37.9762 256.74,37.0722 C256.74,36.1682 257.472,35.4362 258.376,35.4362 C259.28,35.4362 260.012,36.1682 260.012,37.0722 C260.012,37.9762 259.28,38.7082 258.376,38.7082 Z M212.128,39.798 C210.622,39.798 209.402,38.578 209.402,37.072 C209.402,35.568 210.622,34.346 212.128,34.346 C213.634,34.346 214.854,35.568 214.854,37.072 C214.854,38.578 213.634,39.798 212.128,39.798 Z M200.589,39.798 C199.083,39.798 197.863,38.578 197.863,37.072 C197.863,35.568 199.083,34.346 200.589,34.346 C202.093,34.346 203.315,35.568 203.315,37.072 C203.315,38.578 202.093,39.798 200.589,39.798 Z M235.2062,39.2532 C234.0022,39.2532 233.0262,38.2772 233.0262,37.0712 C233.0262,35.8692 234.0022,34.8912 235.2062,34.8912 C236.4122,34.8912 237.3862,35.8692 237.3862,37.0712 C237.3862,38.2772 236.4122,39.2532 235.2062,39.2532 Z M223.6672,39.5246 C222.3132,39.5246 221.2132,38.4266 221.2132,37.0706 C221.2132,35.7186 222.3132,34.6186 223.6672,34.6186 C225.0232,34.6186 226.1212,35.7186 226.1212,37.0706 C226.1212,38.4266 225.0232,39.5246 223.6672,39.5246 Z M252.5606,33.302 C251.6566,33.302 250.9266,32.57 250.9266,31.666 C250.9266,30.762 251.6566,30.03 252.5606,30.03 C253.4646,30.03 254.1966,30.762 254.1966,31.666 C254.1966,32.57 253.4646,33.302 252.5606,33.302 Z M241.0216,33.5734 C239.9676,33.5734 239.1136,32.7194 239.1136,31.6654 C239.1136,30.6134 239.9676,29.7574 241.0216,29.7574 C242.0756,29.7574 242.9296,30.6134 242.9296,31.6654 C242.9296,32.7194 242.0756,33.5734 241.0216,33.5734 Z M264.1008,33.0286 C263.3488,33.0286 262.7368,32.4186 262.7368,31.6646 C262.7368,30.9126 263.3488,30.3046 264.1008,30.3046 C264.8528,30.3046 265.4628,30.9126 265.4628,31.6646 C265.4628,32.4186 264.8528,33.0286 264.1008,33.0286 Z M217.8526,34.1184 C216.4966,34.1184 215.3986,33.0204 215.3986,31.6644 C215.3986,30.3124 216.4966,29.2124 217.8526,29.2124 C219.2066,29.2124 220.3066,30.3124 220.3066,31.6644 C220.3066,33.0204 219.2066,34.1184 217.8526,34.1184 Z M206.3126,34.3918 C204.8086,34.3918 203.5866,33.1718 203.5866,31.6658 C203.5866,30.1618 204.8086,28.9398 206.3126,28.9398 C207.8186,28.9398 209.0386,30.1618 209.0386,31.6658 C209.0386,33.1718 207.8186,34.3918 206.3126,34.3918 Z M194.339,34.3918 C192.835,34.3918 191.613,33.1718 191.613,31.6658 C191.613,30.1618 192.835,28.9398 194.339,28.9398 C195.845,28.9398 197.065,30.1618 197.065,31.6658 C197.065,33.1718 195.845,34.3918 194.339,34.3918 Z M229.4826,33.8468 C228.2786,33.8468 227.3026,32.8708 227.3026,31.6648 C227.3026,30.4628 228.2786,29.4848 229.4826,29.4848 C230.6866,29.4848 231.6626,30.4628 231.6626,31.6648 C231.6626,32.8708 230.6866,33.8468 229.4826,33.8468 Z M252.5606,11.7668 C251.6566,11.7668 250.9266,11.0348 250.9266,10.1328 C250.9266,9.2288 251.6566,8.4968 252.5606,8.4968 C253.4646,8.4968 254.1966,9.2288 254.1966,10.1328 C254.1966,11.0348 253.4646,11.7668 252.5606,11.7668 Z M241.0216,12.0402 C239.9676,12.0402 239.1136,11.1862 239.1136,10.1322 C239.1136,9.0782 239.9676,8.2242 241.0216,8.2242 C242.0756,8.2242 242.9296,9.0782 242.9296,10.1322 C242.9296,11.1862 242.0756,12.0402 241.0216,12.0402 Z M264.1008,11.4954 C263.3488,11.4954 262.7368,10.8834 262.7368,10.1314 C262.7368,9.3794 263.3488,8.7694 264.1008,8.7694 C264.8528,8.7694 265.4628,9.3794 265.4628,10.1314 C265.4628,10.8834 264.8528,11.4954 264.1008,11.4954 Z M206.3126,12.8586 C204.8086,12.8586 203.5866,11.6386 203.5866,10.1326 C203.5866,8.6266 204.8086,7.4046 206.3126,7.4046 C207.8186,7.4046 209.0386,8.6266 209.0386,10.1326 C209.0386,11.6386 207.8186,12.8586 206.3126,12.8586 Z M194.339,12.8586 C192.835,12.8586 191.613,11.6386 191.613,10.1326 C191.613,8.6266 192.835,7.4046 194.339,7.4046 C195.845,7.4046 197.065,8.6266 197.065,10.1326 C197.065,11.6386 195.845,12.8586 194.339,12.8586 Z M229.4826,12.3136 C228.2786,12.3136 227.3026,11.3376 227.3026,10.1316 C227.3026,8.9276 228.2786,7.9516 229.4826,7.9516 C230.6866,7.9516 231.6626,8.9276 231.6626,10.1316 C231.6626,11.3376 230.6866,12.3136 229.4826,12.3136 Z M217.8526,12.5852 C216.4966,12.5852 215.3986,11.4872 215.3986,10.1312 C215.3986,8.7772 216.4966,7.6792 217.8526,7.6792 C219.2066,7.6792 220.3066,8.7772 220.3066,10.1312 C220.3066,11.4872 219.2066,12.5852 217.8526,12.5852 Z M246.7462,17.173 C245.8422,17.173 245.1102,16.441 245.1102,15.539 C245.1102,14.635 245.8422,13.903 246.7462,13.903 C247.6502,13.903 248.3802,14.635 248.3802,15.539 C248.3802,16.441 247.6502,17.173 246.7462,17.173 Z M268.6182,17.595 C268.0622,17.595 267.6122,17.145 267.6122,16.589 C267.6122,16.035 268.0622,15.583 268.6182,15.583 C269.1742,15.583 269.6242,16.035 269.6242,16.589 C269.6242,17.145 269.1742,17.595 268.6182,17.595 Z M258.376,16.9016 C257.624,16.9016 257.012,16.2896 257.012,15.5376 C257.012,14.7856 257.624,14.1756 258.376,14.1756 C259.128,14.1756 259.74,14.7856 259.74,15.5376 C259.74,16.2896 259.128,16.9016 258.376,16.9016 Z M212.128,17.9914 C210.774,17.9914 209.674,16.8934 209.674,15.5374 C209.674,14.1834 210.774,13.0854 212.128,13.0854 C213.482,13.0854 214.582,14.1834 214.582,15.5374 C214.582,16.8934 213.482,17.9914 212.128,17.9914 Z M200.842,17.9914 C199.486,17.9914 198.388,16.8934 198.388,15.5374 C198.388,14.1834 199.486,13.0854 200.842,13.0854 C202.196,13.0854 203.296,14.1834 203.296,15.5374 C203.296,16.8934 202.196,17.9914 200.842,17.9914 Z M189.3282,19.0422 C187.9722,19.0422 186.8742,17.9442 186.8742,16.5882 C186.8742,15.2362 187.9722,14.1362 189.3282,14.1362 C190.6822,14.1362 191.7822,15.2362 191.7822,16.5882 C191.7822,17.9442 190.6822,19.0422 189.3282,19.0422 Z M235.2062,17.4464 C234.1522,17.4464 233.2982,16.5924 233.2982,15.5384 C233.2982,14.4844 234.1522,13.6304 235.2062,13.6304 C236.2602,13.6304 237.1142,14.4844 237.1142,15.5384 C237.1142,16.5924 236.2602,17.4464 235.2062,17.4464 Z M223.6672,17.718 C222.4632,17.718 221.4872,16.744 221.4872,15.538 C221.4872,14.334 222.4632,13.358 223.6672,13.358 C224.8712,13.358 225.8472,14.334 225.8472,15.538 C225.8472,16.744 224.8712,17.718 223.6672,17.718 Z M246.7462,27.8958 C245.8422,27.8958 245.1102,27.1638 245.1102,26.2598 C245.1102,25.3558 245.8422,24.6238 246.7462,24.6238 C247.6502,24.6238 248.3802,25.3558 248.3802,26.2598 C248.3802,27.1638 247.6502,27.8958 246.7462,27.8958 Z M258.376,27.6222 C257.624,27.6222 257.012,27.0122 257.012,26.2582 C257.012,25.5062 257.624,24.8982 258.376,24.8982 C259.128,24.8982 259.74,25.5062 259.74,26.2582 C259.74,27.0122 259.128,27.6222 258.376,27.6222 Z M212.128,28.7122 C210.774,28.7122 209.674,27.6142 209.674,26.2582 C209.674,24.9062 210.774,23.8062 212.128,23.8062 C213.482,23.8062 214.582,24.9062 214.582,26.2582 C214.582,27.6142 213.482,28.7122 212.128,28.7122 Z M200.842,28.7122 C199.486,28.7122 198.388,27.6142 198.388,26.2582 C198.388,24.9062 199.486,23.8062 200.842,23.8062 C202.196,23.8062 203.296,24.9062 203.296,26.2582 C203.296,27.6142 202.196,28.7122 200.842,28.7122 Z M189.3282,27.6614 C187.9722,27.6614 186.8742,26.5634 186.8742,25.2074 C186.8742,23.8534 187.9722,22.7554 189.3282,22.7554 C190.6822,22.7554 191.7822,23.8534 191.7822,25.2074 C191.7822,26.5634 190.6822,27.6614 189.3282,27.6614 Z M235.2062,28.1672 C234.1522,28.1672 233.2982,27.3132 233.2982,26.2592 C233.2982,25.2072 234.1522,24.3532 235.2062,24.3532 C236.2602,24.3532 237.1142,25.2072 237.1142,26.2592 C237.1142,27.3132 236.2602,28.1672 235.2062,28.1672 Z M223.6672,28.4406 C222.4632,28.4406 221.4872,27.4646 221.4872,26.2586 C221.4872,25.0566 222.4632,24.0786 223.6672,24.0786 C224.8712,24.0786 225.8472,25.0566 225.8472,26.2586 C225.8472,27.4646 224.8712,28.4406 223.6672,28.4406 Z M268.6182,26.214 C268.0622,26.214 267.6122,25.764 267.6122,25.208 C267.6122,24.654 268.0622,24.202 268.6182,24.202 C269.1742,24.202 269.6242,24.654 269.6242,25.208 C269.6242,25.764 269.1742,26.214 268.6182,26.214 Z M271.7248,10.8586 C271.3228,10.8586 270.9968,10.5346 270.9968,10.1326 C270.9968,9.7306 271.3228,9.4046 271.7248,9.4046 C272.1268,9.4046 272.4528,9.7306 272.4528,10.1326 C272.4528,10.5346 272.1268,10.8586 271.7248,10.8586 Z M271.7248,32.3938 C271.3228,32.3938 270.9968,32.0678 270.9968,31.6658 C270.9968,31.2658 271.3228,30.9378 271.7248,30.9378 C272.1268,30.9378 272.4528,31.2658 272.4528,31.6658 C272.4528,32.0678 272.1268,32.3938 271.7248,32.3938 Z M252.5606,22.263 C251.8086,22.263 251.1986,21.651 251.1986,20.899 C251.1986,20.145 251.8086,19.537 252.5606,19.537 C253.3126,19.537 253.9246,20.145 253.9246,20.899 C253.9246,21.651 253.3126,22.263 252.5606,22.263 Z M241.0216,22.5344 C240.1176,22.5344 239.3856,21.8024 239.3856,20.9004 C239.3856,19.9944 240.1176,19.2624 241.0216,19.2624 C241.9256,19.2624 242.6576,19.9944 242.6576,20.9004 C242.6576,21.8024 241.9256,22.5344 241.0216,22.5344 Z M262.9172,22.0812 C262.2652,22.0812 261.7352,21.5512 261.7352,20.8992 C261.7352,20.2452 262.2652,19.7152 262.9172,19.7152 C263.5712,19.7152 264.1012,20.2452 264.1012,20.8992 C264.1012,21.5512 263.5712,22.0812 262.9172,22.0812 Z M206.293,23.3528 C204.939,23.3528 203.839,22.2528 203.839,20.8988 C203.839,19.5448 204.939,18.4468 206.293,18.4468 C207.649,18.4468 208.747,19.5448 208.747,20.8988 C208.747,22.2528 207.649,23.3528 206.293,23.3528 Z M195.3908,23.3528 C194.0348,23.3528 192.9368,22.2528 192.9368,20.8988 C192.9368,19.5448 194.0348,18.4468 195.3908,18.4468 C196.7448,18.4468 197.8448,19.5448 197.8448,20.8988 C197.8448,22.2528 196.7448,23.3528 195.3908,23.3528 Z M217.8526,23.0794 C216.6466,23.0794 215.6726,22.1034 215.6726,20.8994 C215.6726,19.6954 216.6466,18.7174 217.8526,18.7174 C219.0566,18.7174 220.0326,19.6954 220.0326,20.8994 C220.0326,22.1034 219.0566,23.0794 217.8526,23.0794 Z M229.4826,22.8078 C228.4286,22.8078 227.5746,21.9518 227.5746,20.8998 C227.5746,19.8458 228.4286,18.9918 229.4826,18.9918 C230.5366,18.9918 231.3906,19.8458 231.3906,20.8998 C231.3906,21.9518 230.5366,22.8078 229.4826,22.8078 Z M246.7462,6.634 C245.6922,6.634 244.8382,5.78 244.8382,4.726 C244.8382,3.672 245.6922,2.818 246.7462,2.818 C247.8002,2.818 248.6542,3.672 248.6542,4.726 C248.6542,5.78 247.8002,6.634 246.7462,6.634 Z M235.2062,6.9074 C234.0022,6.9074 233.0262,5.9314 233.0262,4.7254 C233.0262,3.5214 234.0022,2.5454 235.2062,2.5454 C236.4122,2.5454 237.3862,3.5214 237.3862,4.7254 C237.3862,5.9314 236.4122,6.9074 235.2062,6.9074 Z M268.8644,5.9172 C268.2064,5.9172 267.6724,5.3832 267.6724,4.7252 C267.6724,4.0672 268.2064,3.5352 268.8644,3.5352 C269.5224,3.5352 270.0564,4.0672 270.0564,4.7252 C270.0564,5.3832 269.5224,5.9172 268.8644,5.9172 Z M258.376,6.3606 C257.472,6.3606 256.74,5.6306 256.74,4.7266 C256.74,3.8226 257.472,3.0906 258.376,3.0906 C259.28,3.0906 260.012,3.8226 260.012,4.7266 C260.012,5.6306 259.28,6.3606 258.376,6.3606 Z M200.589,7.4524 C199.083,7.4524 197.863,6.2324 197.863,4.7264 C197.863,3.2204 199.083,1.9984 200.589,1.9984 C202.093,1.9984 203.315,3.2204 203.315,4.7264 C203.315,6.2324 202.093,7.4524 200.589,7.4524 Z M212.128,7.4524 C210.622,7.4524 209.402,6.2324 209.402,4.7264 C209.402,3.2204 210.622,1.9984 212.128,1.9984 C213.634,1.9984 214.854,3.2204 214.854,4.7264 C214.854,6.2324 213.634,7.4524 212.128,7.4524 Z M223.6672,7.1788 C222.3132,7.1788 221.2132,6.0808 221.2132,4.7248 C221.2132,3.3708 222.3132,2.2728 223.6672,2.2728 C225.0232,2.2728 226.1212,3.3708 226.1212,4.7248 C226.1212,6.0808 225.0232,7.1788 223.6672,7.1788 Z" id="Fill-109"/>
                <path d="M1.0968,43.1086 L3.7748,43.1086 C4.3808,43.1086 4.8728,42.6166 4.8728,42.0106 L4.8728,31.9626 C4.8728,31.6706 4.9888,31.3926 5.1948,31.1866 L7.4748,28.9066 C7.6808,28.7026 7.9608,28.5866 8.2508,28.5866 L12.4668,28.5866 C13.0708,28.5866 13.5628,29.0766 13.5628,29.6846 L13.5628,42.0106 C13.5628,42.6166 14.0548,43.1086 14.6608,43.1086 L18.4748,43.1086 C19.0808,43.1086 19.5728,43.5986 19.5728,44.2066 L19.5728,49.8006 C19.5728,50.4046 19.0808,50.8966 18.4748,50.8966 L14.6608,50.8966 C14.0548,50.8966 13.5628,51.3886 13.5628,51.9926 L13.5628,71.2166 C13.5628,71.8206 14.0548,72.3146 14.6608,72.3146 L15.7968,72.3146 C16.4008,72.3146 16.8928,72.8046 16.8928,73.4106 L16.8928,79.6526 C16.8928,80.2586 16.4008,80.7506 15.7968,80.7506 L9.0628,80.7506 C8.7728,80.7506 8.4928,80.6366 8.2888,80.4286 L5.1948,77.3406 C4.9888,77.1346 4.8728,76.8546 4.8728,76.5646 L4.8728,51.9926 C4.8728,51.3886 4.3808,50.8966 3.7748,50.8966 L1.0968,50.8966 C0.4908,50.8966 0.0008,50.4046 0.0008,49.8006 L0.0008,44.2066 C0.0008,43.5986 0.4908,43.1086 1.0968,43.1086" id="Fill-128"/>
                <path d="M272.6838,59.5324 L286.3458,59.5324 C287.1138,59.5324 287.6358,58.7684 287.3758,58.0464 C286.2778,54.9944 283.2038,52.8504 279.5798,52.8504 C275.9658,52.8504 272.9518,54.9284 271.6738,58.0004 C271.3718,58.7284 271.8958,59.5324 272.6838,59.5324 M288.3918,69.9204 L292.9538,72.4064 C293.5178,72.7144 293.7078,73.4444 293.3458,73.9784 C290.5838,78.0464 285.9038,81.5584 279.6538,81.5584 C269.8798,81.5584 262.8958,73.3344 262.8958,63.7904 C262.8958,54.1724 269.8798,45.8764 279.5798,45.8764 C289.0998,45.8764 295.0818,53.7244 295.5798,62.4104 C295.5978,62.7284 295.4718,63.0364 295.2458,63.2564 L292.9818,65.4624 C292.7778,65.6604 292.5018,65.7724 292.2158,65.7724 L272.1118,65.7724 C271.4118,65.7724 270.8858,66.4224 271.0358,67.1064 C271.9838,71.4224 275.5758,74.2164 279.6538,74.2164 C282.4358,74.2164 285.2198,72.6044 286.9798,70.2424 C287.3098,69.8004 287.9058,69.6564 288.3918,69.9204" id="Fill-125"/>
                <path d="M49.1944,63.718 C49.1944,58.21 45.0784,53.512 39.4204,53.512 C33.6864,53.512 29.5704,58.21 29.5704,63.718 C29.5704,69.224 33.7604,73.998 39.4204,73.998 C45.0064,73.998 49.1944,69.224 49.1944,63.718 M57.2044,63.718 C57.2044,73.774 49.0464,81.558 39.4204,81.558 C29.7184,81.558 21.5604,73.774 21.5604,63.718 C21.5604,53.66 29.7184,45.95 39.4204,45.95 C49.0464,45.95 57.2044,53.66 57.2044,63.718" id="Fill-113"/>
                <path d="M61.7912,65.9192 L61.7912,47.7832 C61.7912,47.1752 62.2832,46.6852 62.8892,46.6852 L68.7052,46.6852 C69.3112,46.6852 69.8012,47.1752 69.8012,47.7832 L69.8012,65.9192 C69.8012,71.3532 72.8892,73.9972 76.5632,73.9972 C80.2392,73.9972 83.3252,71.3532 83.3252,65.9192 L83.3252,47.7832 C83.3252,47.1752 83.8172,46.6852 84.4232,46.6852 L90.1672,46.6852 C90.7712,46.6852 91.2632,47.1752 91.2632,47.7832 L91.2632,65.9192 C91.2632,75.9792 84.4272,81.5572 76.5632,81.5572 C68.6992,81.5572 61.7912,75.9792 61.7912,65.9192" id="Fill-115"/>
                <path d="M121.6524,71.38 L126.0124,74.792 C126.5304,75.196 126.5844,75.968 126.1164,76.43 C123.0364,79.476 118.9624,81.558 114.4004,81.558 C104.9184,81.558 96.6124,73.702 96.6124,63.718 C96.6124,53.732 104.7724,45.876 114.4004,45.876 C118.6484,45.876 123.0844,47.486 125.6024,50.304 C125.9824,50.728 125.9464,51.38 125.5464,51.784 L121.5964,55.784 C121.1724,56.212 120.4904,56.216 120.0544,55.802 C118.6964,54.508 116.7264,53.438 114.4004,53.438 C108.7404,53.438 104.5504,58.284 104.5504,63.718 C104.5504,69.078 108.7404,73.998 114.4004,73.998 C116.8204,73.998 118.6904,72.948 120.1984,71.472 C120.5964,71.084 121.2144,71.038 121.6524,71.38" id="Fill-117"/>
                <path d="M160.9932,80.7512 L155.1772,80.7512 C154.5712,80.7512 154.0792,80.2592 154.0792,79.6532 L154.0792,60.3412 C154.0792,55.8632 151.5072,53.7312 147.9052,53.7312 C144.0092,53.7312 141.0712,56.0812 141.0712,59.0932 L141.0712,79.6532 C141.0712,80.2592 140.5792,80.7512 139.9732,80.7512 L134.3032,80.7512 C133.6992,80.7512 133.2072,80.2592 133.2072,79.6532 L133.2072,31.6852 C133.2072,31.3932 133.3232,31.1152 133.5292,30.9092 L135.5312,28.9072 C135.7372,28.7032 136.0152,28.5872 136.3072,28.5872 L139.9732,28.5872 C140.5792,28.5872 141.0712,29.0772 141.0712,29.6852 L141.0712,47.4012 C141.0712,48.2712 142.0372,48.8012 142.7612,48.3212 C144.7472,46.9992 147.0572,46.1712 149.8892,46.1712 C156.0632,46.1712 162.0892,50.1352 162.0892,60.3412 L162.0892,79.6532 C162.0892,80.2592 161.5992,80.7512 160.9932,80.7512" id="Fill-119"/>
                <path d="M170.7598,30.9114 L172.6978,28.9194 C172.9038,28.7054 173.1878,28.5874 173.4838,28.5874 L177.3618,28.5874 C177.9678,28.5874 178.4598,29.0774 178.4598,29.6854 L178.4598,72.0194 C178.4598,72.6234 178.9518,73.1154 179.5558,73.1154 L180.3758,73.1154 C180.9818,73.1154 181.4738,73.6074 181.4738,74.2114 L181.4738,79.6534 C181.4738,80.2594 180.9818,80.7514 180.3758,80.7514 L174.2178,80.7514 C173.9218,80.7514 173.6398,80.6314 173.4318,80.4214 L170.7618,77.6934 C170.5618,77.4874 170.4498,77.2114 170.4498,76.9254 L170.4498,31.6754 C170.4498,31.3894 170.5598,31.1154 170.7598,30.9114" id="Fill-121"/>
                <path d="M256.8146,80.7512 L251.0726,80.7512 C250.4666,80.7512 249.9766,80.2592 249.9766,79.6532 L249.9766,60.1932 C249.9766,55.7132 247.3286,53.5852 243.7286,53.5852 C239.8326,53.5852 236.8926,56.0092 236.8926,59.0932 L236.8926,79.6532 C236.8926,80.2592 236.4006,80.7512 235.7966,80.7512 L230.1266,80.7512 C229.5206,80.7512 229.0286,80.2592 229.0286,79.6532 L229.0286,54.8292 C229.0286,54.2232 228.5366,53.7312 227.9326,53.7312 L227.1866,53.7312 C226.5806,53.7312 226.0886,53.2412 226.0886,52.6352 L226.0886,47.7832 C226.0886,47.1752 226.5806,46.6852 227.1866,46.6852 L231.8906,46.6852 C232.1766,46.6852 232.4506,46.7952 232.6566,46.9972 L234.8946,49.1812 C235.2726,49.5512 235.8646,49.5992 236.2946,49.2892 C239.1606,47.2092 242.5306,46.0252 245.7126,46.0252 C251.8866,46.0252 257.9126,49.9892 257.9126,60.1932 L257.9126,79.6532 C257.9126,80.2592 257.4206,80.7512 256.8146,80.7512" id="Fill-123"/>
                <path d="M210.2424,70.9562 C199.5884,78.8922 187.6484,66.9502 195.5844,56.2962 C195.6524,56.2062 195.7364,56.1222 195.8264,56.0562 C206.4784,48.1222 218.4164,60.0602 210.4844,70.7142 C210.4164,70.8042 210.3324,70.8882 210.2424,70.9562 L210.2424,70.9562 Z M221.4004,73.3722 C220.7944,73.3722 220.3044,72.8822 220.3044,72.2742 L220.3044,69.1502 L220.3044,58.1382 L220.3044,53.7322 L220.3224,47.7842 C220.3244,47.1762 219.8324,46.6842 219.2264,46.6842 L216.8484,46.6842 L215.8024,46.6842 C215.4824,46.6842 215.1784,46.8242 214.9704,47.0662 L213.3044,49.0022 C213.1324,49.2022 213.0384,49.4562 213.0384,49.7182 L213.0384,50.4962 L212.4404,49.8662 C211.1964,48.6382 208.6304,46.6362 204.7524,46.0482 C204.1604,45.9602 203.5404,45.9042 202.8904,45.8882 C202.7664,45.8862 202.6464,45.8762 202.5184,45.8762 C192.7444,45.8762 185.0284,53.9282 185.0284,63.5062 C185.0284,63.5422 185.0344,63.5762 185.0344,63.6102 C185.0344,63.6482 185.0284,63.6802 185.0284,63.7182 C185.0284,73.4102 192.7444,81.5582 202.5184,81.5582 C207.6624,81.5582 210.9704,78.9882 212.4404,77.5202 L212.4444,77.5142 C212.8704,77.0642 213.5844,77.0542 214.0224,77.4942 L216.5284,80.0122 C216.7344,80.2202 217.0144,80.3362 217.3064,80.3362 L222.2184,80.3362 C222.8264,80.3362 223.3164,79.8462 223.3164,79.2402 L223.3164,74.4702 C223.3164,73.8642 222.8264,73.3722 222.2184,73.3722 L221.4004,73.3722 Z" id="Fill-130"/>
            </g>
        </g>
    </g>
</svg>
